<?xml version="1.0" encoding="UTF-8"?><svg id="Layer_2" xmlns="http://www.w3.org/2000/svg" width="146.69" height="1114.36" viewBox="0 0 146.69 1114.36"><defs><style>.cls-1{fill:#332c22;}.cls-2{fill:#beb8ac;}</style></defs><g id="Layer_2-2"><rect class="cls-1" width="146.69" height="1114.36"/><rect class="cls-2" x="6.3" y="237" width="38.91" height="130"/><rect class="cls-2" x="50.6" y="237" width="38.91" height="130"/><rect class="cls-2" x="94.9" y="237" width="38.91" height="130"/><rect class="cls-2" x="6.3" y="372" width="38.91" height="130"/><rect class="cls-2" x="50.6" y="372" width="38.91" height="130"/><rect class="cls-2" x="94.9" y="372" width="38.91" height="130"/><rect class="cls-2" x="6.3" y="507" width="38.91" height="130"/><rect class="cls-2" x="50.6" y="507" width="38.91" height="130"/><rect class="cls-2" x="94.9" y="507" width="38.91" height="130"/><rect class="cls-2" x="6.3" y="642" width="38.91" height="130"/><rect class="cls-2" x="50.6" y="642" width="38.91" height="130"/><rect class="cls-2" x="94.9" y="642" width="38.91" height="130"/><rect class="cls-2" x="6.3" y="777" width="38.91" height="130"/><rect class="cls-2" x="50.6" y="777" width="38.91" height="130"/><rect class="cls-2" x="94.9" y="777" width="38.91" height="130"/></g></svg>