<?xml version="1.0" encoding="UTF-8"?><svg id="Layer_2" xmlns="http://www.w3.org/2000/svg" width="147" height="1114.3" viewBox="0 0 147 1114.3"><defs><style>.cls-1{fill:#332c22;}.cls-2{fill:#beb8ac;}</style></defs><g id="Layer_3"><rect class="cls-1" width="147" height="1114.3" transform="translate(147 1114.3) rotate(180)"/><rect class="cls-2" x="101.73" y="237" width="38.97" height="130" transform="translate(242.44 604) rotate(180)"/><rect class="cls-2" x="57.37" y="237" width="38.97" height="130" transform="translate(153.7 604) rotate(180)"/><rect class="cls-2" x="13" y="237" width="38.97" height="130" transform="translate(64.97 604) rotate(180)"/><rect class="cls-2" x="101.73" y="372" width="38.97" height="130" transform="translate(242.44 874) rotate(180)"/><rect class="cls-2" x="57.37" y="372" width="38.97" height="130" transform="translate(153.7 874) rotate(180)"/><rect class="cls-2" x="13" y="372" width="38.97" height="130" transform="translate(64.97 874) rotate(180)"/><rect class="cls-2" x="101.73" y="507" width="38.97" height="130" transform="translate(242.44 1144) rotate(180)"/><rect class="cls-2" x="57.37" y="507" width="38.97" height="130" transform="translate(153.7 1144) rotate(180)"/><rect class="cls-2" x="13" y="507" width="38.97" height="130" transform="translate(64.97 1144) rotate(180)"/><rect class="cls-2" x="101.73" y="642" width="38.97" height="130" transform="translate(242.44 1414) rotate(180)"/><rect class="cls-2" x="57.37" y="642" width="38.97" height="130" transform="translate(153.7 1414) rotate(180)"/><rect class="cls-2" x="13" y="642" width="38.97" height="130" transform="translate(64.97 1414) rotate(180)"/><rect class="cls-2" x="101.73" y="777" width="38.97" height="130" transform="translate(242.44 1684) rotate(180)"/><rect class="cls-2" x="57.37" y="777" width="38.97" height="130" transform="translate(153.7 1684) rotate(180)"/><rect class="cls-2" x="13" y="777" width="38.97" height="130" transform="translate(64.97 1684) rotate(180)"/></g></svg>