<?xml version="1.0" encoding="UTF-8"?><svg id="Layer_2" xmlns="http://www.w3.org/2000/svg" width="601" height="1618" viewBox="0 0 601 1618"><defs><style>.cls-1{fill:#332c22;}.cls-2{fill:#beb8ac;}.cls-3{opacity:.3;}</style></defs><g id="Layer_2-2"><g class="cls-3"><rect class="cls-1" width="601" height="1618"/><rect class="cls-2" x="14" y="116" width="42.42" height="130"/><rect class="cls-2" x="62.29" y="116" width="42.42" height="130"/><rect class="cls-2" x="110.58" y="116" width="42.42" height="130"/><rect class="cls-2" x="14" y="251" width="42.42" height="130"/><rect class="cls-2" x="62.29" y="251" width="42.42" height="130"/><rect class="cls-2" x="110.58" y="251" width="42.42" height="130"/><rect class="cls-2" x="14" y="386" width="42.42" height="130"/><rect class="cls-2" x="62.29" y="386" width="42.42" height="130"/><rect class="cls-2" x="110.58" y="386" width="42.42" height="130"/><rect class="cls-2" x="14" y="521" width="42.42" height="130"/><rect class="cls-2" x="62.29" y="521" width="42.42" height="130"/><rect class="cls-2" x="110.58" y="521" width="42.42" height="130"/><rect class="cls-2" x="14" y="656" width="42.42" height="130"/><rect class="cls-2" x="62.29" y="656" width="42.42" height="130"/><rect class="cls-2" x="110.58" y="656" width="42.42" height="130"/><rect class="cls-2" x="158.9" y="116.15" width="42.42" height="130"/><rect class="cls-2" x="207.2" y="116.15" width="42.42" height="130"/><rect class="cls-2" x="255.49" y="116.15" width="42.42" height="130"/><rect class="cls-2" x="158.9" y="251.15" width="42.42" height="130"/><rect class="cls-2" x="207.2" y="251.15" width="42.42" height="130"/><rect class="cls-2" x="255.49" y="251.15" width="42.42" height="130"/><rect class="cls-2" x="158.9" y="386.15" width="42.42" height="130"/><rect class="cls-2" x="207.2" y="386.15" width="42.42" height="130"/><rect class="cls-2" x="255.49" y="386.15" width="42.42" height="130"/><rect class="cls-2" x="158.9" y="521.15" width="42.42" height="130"/><rect class="cls-2" x="207.2" y="521.15" width="42.42" height="130"/><rect class="cls-2" x="255.49" y="521.15" width="42.42" height="130"/><rect class="cls-2" x="158.9" y="656.15" width="42.42" height="130"/><rect class="cls-2" x="207.2" y="656.15" width="42.42" height="130"/><rect class="cls-2" x="255.49" y="656.15" width="42.42" height="130"/><rect class="cls-2" x="303.9" y="116.15" width="42.42" height="130"/><rect class="cls-2" x="352.2" y="116.15" width="42.42" height="130"/><rect class="cls-2" x="400.49" y="116.15" width="42.42" height="130"/><rect class="cls-2" x="303.9" y="251.15" width="42.42" height="130"/><rect class="cls-2" x="352.2" y="251.15" width="42.42" height="130"/><rect class="cls-2" x="400.49" y="251.15" width="42.42" height="130"/><rect class="cls-2" x="303.9" y="386.15" width="42.42" height="130"/><rect class="cls-2" x="352.2" y="386.15" width="42.42" height="130"/><rect class="cls-2" x="400.49" y="386.15" width="42.42" height="130"/><rect class="cls-2" x="303.9" y="521.15" width="42.42" height="130"/><rect class="cls-2" x="352.2" y="521.15" width="42.42" height="130"/><rect class="cls-2" x="400.49" y="521.15" width="42.42" height="130"/><rect class="cls-2" x="303.9" y="656.15" width="42.42" height="130"/><rect class="cls-2" x="352.2" y="656.15" width="42.42" height="130"/><rect class="cls-2" x="400.49" y="656.15" width="42.42" height="130"/><rect class="cls-2" x="447.9" y="116.15" width="42.42" height="130"/><rect class="cls-2" x="496.2" y="116.15" width="42.42" height="130"/><rect class="cls-2" x="544.49" y="116.15" width="42.42" height="130"/><rect class="cls-2" x="447.9" y="251.15" width="42.42" height="130"/><rect class="cls-2" x="496.2" y="251.15" width="42.42" height="130"/><rect class="cls-2" x="544.49" y="251.15" width="42.42" height="130"/><rect class="cls-2" x="447.9" y="386.15" width="42.42" height="130"/><rect class="cls-2" x="496.2" y="386.15" width="42.42" height="130"/><rect class="cls-2" x="544.49" y="386.15" width="42.42" height="130"/><rect class="cls-2" x="447.9" y="521.15" width="42.42" height="130"/><rect class="cls-2" x="496.2" y="521.15" width="42.42" height="130"/><rect class="cls-2" x="544.49" y="521.15" width="42.42" height="130"/><rect class="cls-2" x="447.9" y="656.15" width="42.42" height="130"/><rect class="cls-2" x="496.2" y="656.15" width="42.42" height="130"/><rect class="cls-2" x="544.49" y="656.15" width="42.42" height="130"/><rect class="cls-2" x="13.9" y="791.21" width="42.42" height="130"/><rect class="cls-2" x="62.2" y="791.21" width="42.42" height="130"/><rect class="cls-2" x="110.49" y="791.21" width="42.42" height="130"/><rect class="cls-2" x="13.9" y="926.21" width="42.42" height="130"/><rect class="cls-2" x="62.2" y="926.21" width="42.42" height="130"/><rect class="cls-2" x="110.49" y="926.21" width="42.42" height="130"/><rect class="cls-2" x="13.9" y="1061.21" width="42.42" height="130"/><rect class="cls-2" x="62.2" y="1061.21" width="42.42" height="130"/><rect class="cls-2" x="110.49" y="1061.21" width="42.42" height="130"/><rect class="cls-2" x="13.9" y="1196.21" width="42.42" height="130"/><rect class="cls-2" x="62.2" y="1196.21" width="42.42" height="130"/><rect class="cls-2" x="110.49" y="1196.21" width="42.42" height="130"/><rect class="cls-2" x="13.9" y="1331.21" width="42.42" height="130"/><rect class="cls-2" x="62.2" y="1331.21" width="42.42" height="130"/><rect class="cls-2" x="110.49" y="1331.21" width="42.42" height="130"/><rect class="cls-2" x="159.2" y="791.62" width="42.42" height="130"/><rect class="cls-2" x="207.49" y="791.62" width="42.42" height="130"/><rect class="cls-2" x="255.78" y="791.62" width="42.42" height="130"/><rect class="cls-2" x="159.2" y="926.62" width="42.42" height="130"/><rect class="cls-2" x="207.49" y="926.62" width="42.42" height="130"/><rect class="cls-2" x="255.78" y="926.62" width="42.42" height="130"/><rect class="cls-2" x="159.2" y="1061.62" width="42.42" height="130"/><rect class="cls-2" x="207.49" y="1061.62" width="42.42" height="130"/><rect class="cls-2" x="255.78" y="1061.62" width="42.42" height="130"/><rect class="cls-2" x="159.2" y="1196.62" width="42.42" height="130"/><rect class="cls-2" x="207.49" y="1196.62" width="42.42" height="130"/><rect class="cls-2" x="255.78" y="1196.62" width="42.42" height="130"/><rect class="cls-2" x="159.2" y="1331.62" width="42.42" height="130"/><rect class="cls-2" x="207.49" y="1331.62" width="42.42" height="130"/><rect class="cls-2" x="255.78" y="1331.62" width="42.42" height="130"/><rect class="cls-2" x="303.56" y="791.15" width="42.42" height="130"/><rect class="cls-2" x="351.85" y="791.15" width="42.42" height="130"/><rect class="cls-2" x="400.15" y="791.15" width="42.42" height="130"/><rect class="cls-2" x="303.56" y="926.15" width="42.42" height="130"/><rect class="cls-2" x="351.85" y="926.15" width="42.42" height="130"/><rect class="cls-2" x="400.15" y="926.15" width="42.42" height="130"/><rect class="cls-2" x="303.56" y="1061.15" width="42.42" height="130"/><rect class="cls-2" x="351.85" y="1061.15" width="42.42" height="130"/><rect class="cls-2" x="400.15" y="1061.15" width="42.42" height="130"/><rect class="cls-2" x="303.56" y="1196.15" width="42.42" height="130"/><rect class="cls-2" x="351.85" y="1196.15" width="42.42" height="130"/><rect class="cls-2" x="400.15" y="1196.15" width="42.42" height="130"/><rect class="cls-2" x="303.56" y="1331.15" width="42.42" height="130"/><rect class="cls-2" x="351.85" y="1331.15" width="42.42" height="130"/><rect class="cls-2" x="400.15" y="1331.15" width="42.42" height="130"/><rect class="cls-2" x="447.56" y="791.15" width="42.42" height="130"/><rect class="cls-2" x="495.85" y="791.15" width="42.42" height="130"/><rect class="cls-2" x="544.15" y="791.15" width="42.42" height="130"/><rect class="cls-2" x="447.56" y="926.15" width="42.42" height="130"/><rect class="cls-2" x="495.85" y="926.15" width="42.42" height="130"/><rect class="cls-2" x="544.15" y="926.15" width="42.42" height="130"/><rect class="cls-2" x="447.56" y="1061.15" width="42.42" height="130"/><rect class="cls-2" x="495.85" y="1061.15" width="42.42" height="130"/><rect class="cls-2" x="544.15" y="1061.15" width="42.42" height="130"/><rect class="cls-2" x="447.56" y="1196.15" width="42.42" height="130"/><rect class="cls-2" x="495.85" y="1196.15" width="42.42" height="130"/><rect class="cls-2" x="544.15" y="1196.15" width="42.42" height="130"/><rect class="cls-2" x="447.56" y="1331.15" width="42.42" height="130"/><rect class="cls-2" x="495.85" y="1331.15" width="42.42" height="130"/><rect class="cls-2" x="544.15" y="1331.15" width="42.42" height="130"/></g></g></svg>