<?xml version="1.0" encoding="UTF-8"?><svg id="Layer_9" xmlns="http://www.w3.org/2000/svg" width="83.75" height="204.99" xmlns:xlink="http://www.w3.org/1999/xlink" viewBox="0 0 83.75 204.99"><defs><style>.cls-1{fill:url(#linear-gradient-2);}.cls-2{stroke:#000;stroke-miterlimit:10;stroke-width:3px;}.cls-3{fill:url(#linear-gradient-3);}.cls-4{fill:url(#linear-gradient);}.cls-5{fill:url(#linear-gradient-4);}</style><linearGradient id="linear-gradient" x1="27.02" y1="196.49" x2="57.02" y2="196.49" gradientUnits="userSpaceOnUse"><stop offset=".03" stop-color="#1a0000"/><stop offset=".32" stop-color="#230a0a"/><stop offset="1" stop-color="#fff"/><stop offset="1" stop-color="#fff"/></linearGradient><linearGradient id="linear-gradient-2" x1="0" y1="114.93" x2="83.75" y2="114.93" gradientUnits="userSpaceOnUse"><stop offset=".12" stop-color="#d3a056"/><stop offset="1" stop-color="#fff"/><stop offset="1" stop-color="#fff"/></linearGradient><linearGradient id="linear-gradient-3" y1="32.99" y2="32.99" xlink:href="#linear-gradient"/><linearGradient id="linear-gradient-4" x1="11.61" y1="113.56" x2="72" y2="113.56" gradientUnits="userSpaceOnUse"><stop offset=".19" stop-color="#6f2625"/><stop offset=".38" stop-color="#702827"/><stop offset=".49" stop-color="#763130"/><stop offset=".59" stop-color="#803f3e"/><stop offset=".67" stop-color="#8d5453"/><stop offset=".75" stop-color="#9f6e6e"/><stop offset=".83" stop-color="#b58f8f"/><stop offset=".9" stop-color="#cfb6b6"/><stop offset=".96" stop-color="#ece2e2"/><stop offset="1" stop-color="#fff"/><stop offset="1" stop-color="#fff"/></linearGradient></defs><rect class="cls-4" x="27.02" y="187.99" width="30" height="17"/><path class="cls-1" d="m83.15,113.79c1.13,31.96,5.1,80.99-41.18,80.64S-.86,144.5.81,113.17-.5,38.77,39.93,35.56c40.42-3.2,42.1,46.27,43.22,78.23Z"/><rect class="cls-3" x="27.02" y="26.99" width="30" height="12"/><line class="cls-2" x1="42.02" y1="26.99" x2="41.87" y2="0"/><ellipse class="cls-5" cx="41.8" cy="113.56" rx="30.19" ry="40.48"/><path d="m31.83,173.84s-4.4-.55-2.06-8.12,5.64-7.98,5.64-7.98c0,0,18.58,5.64,18.31,8.67s-3.58,5.09-4.54,3.44-11.84-8.12-12.8-6.61-1.51,9.22-1.79,9.5-1.49,1.67-2.75,1.1Z"/><path d="m27.5,149.34s23.81,4.13,26.56-.83-1.24-12.94-1.24-12.94c0,0-3.03-3.58-5.23-1.65s5.37,9.91,1.24,11.29-16.93-1.38-16.93-1.38c0,0-7.71,2.75-4.4,5.51Z"/><path d="m40.52,107.51s12.33,6.54,14.38,3.43,0-3.43,0-3.43c0,0-7.66-3.6-9.71-2.78s-6.29,1.97-4.67,2.78Z"/><path d="m24.19,77.12s7.71.28,7.71,0,3.4,11.97,5.49,12.39,3.46-4.68,3.46-4.68l-2.76-7.71,16.93-2.61s4.95-2.2,3.57-4.27-21.88,2.75-22.3,1.51-2.89-9.5-1.24-10.05,4.65,1.35,4.82,2.48c.2,1.34,3.58-2.06,2.41-3.85s-4.73-6.62-8.47-3.17c-4.29,3.97-3.7,14.85-3.17,14.87,0,0-4.9,2.24-5.78,2.34-1.55.17-.69,2.75-.69,2.75Z"/><path d="m45.47,125.94s4.05.41,3.77-2.2-19.49-26-19.27-26.98c.22-.94-6.46-2.19-3.86,4.4,1.16,2.95,19.42,24.7,19.35,24.78Z"/></svg>