<?xml version="1.0" encoding="UTF-8"?><svg xmlns="http://www.w3.org/2000/svg" width="1920" height="1080" xmlns:xlink="http://www.w3.org/1999/xlink" viewBox="0 0 1920 1080"><defs><style>.cls-1{fill:#9b724e;}.cls-2{fill:#fff;}.cls-3{fill:#ce5262;}.cls-4{fill:#26798c;}.cls-5{fill:#8cc63f;}.cls-6{fill:#977abf;}.cls-7{fill:#f2e3b6;}.cls-8{fill:#9ac7a9;}.cls-9{fill:#d93b65;}.cls-10{fill:#3b3200;}.cls-11,.cls-12,.cls-13{fill:none;stroke-miterlimit:10;}.cls-11,.cls-13{stroke:#2b264f;}.cls-12{stroke:#39b54a;stroke-width:2px;}.cls-14{fill:#404849;opacity:.5;}.cls-15{fill:#785da3;}.cls-16{fill:#f26835;}.cls-17{fill:#f9f8e5;}.cls-18{fill:#5855a2;}.cls-19{fill:#569ca5;}.cls-20{fill:#fdd552;}.cls-21{fill:#78664d;}.cls-22{fill:#81e3d1;}.cls-23{fill:#e2c27f;}.cls-24{fill:#cfceed;}.cls-25{fill:#94fd90;}.cls-26{fill:#f2a950;}.cls-27{fill:#f2da5e;}.cls-13{stroke-width:4px;}.cls-28{fill:#8b72b2;}.cls-29{fill:#c1d3a5;}.cls-30{fill:#231e04;}.cls-31{fill:url(#linear-gradient);}.cls-32{fill:#e8dacf;}.cls-33{fill:#594b3b;}.cls-34{fill:#81e39a;}.cls-35{fill:#2b264f;}</style><linearGradient id="linear-gradient" x1="959.72" y1="-4.29" x2="960.76" y2="1113.36" gradientUnits="userSpaceOnUse"><stop offset=".14" stop-color="#241c5e"/><stop offset=".38" stop-color="#e1d59d"/><stop offset=".66" stop-color="#bf9042"/><stop offset=".87" stop-color="#260232"/></linearGradient></defs><g id="baugrundtop"><rect class="cls-7" x="13.57" y="69.82" width="1906.68" height="610.18"/></g><g id="baugrundbund"><rect class="cls-30" x="-4.56" y="1003.1" width="1554.07" height="85.1" rx="12" ry="12"/></g><g id="baugrung_gradi"><rect class="cls-31" x=".75" y="26.5" width="1919" height="1079" rx="11.5" ry="11.5"/><path d="m1908.25,27c6.07,0,11,4.93,11,11v1056c0,6.07-4.93,11-11,11H12.25c-6.07,0-11-4.93-11-11V38c0-6.07,4.93-11,11-11h1896m0-1H12.25C5.65,26,.25,31.4.25,38v1056c0,6.6,5.4,12,12,12h1896c6.6,0,12-5.4,12-12V38c0-6.6-5.4-12-12-12h0Z"/></g><g id="tæppe1"><path class="cls-3" d="m1901.05,783.58c7.6,137.32-204.46,222.85-228.12,232.27-45.92,18.28-84.39,24.96-102.47,27.99-305.79,51.37-640.02,52.16-640.02,52.16s-334.89.79-601.06-45.49c-5.19-.9-49.43-8.79-104.1-27.99-101.05-35.49-135.74-73.79-146.39-86.65-8.26-9.96-17.13-20.86-22.73-37.18-14.01-40.81,5.39-77.64,16.23-97.46,105.07-192.1,309.05-261.28,309.05-261.28,58-19.67,161.75-28.22,369.23-45.32,87.48-7.21,131.22-10.82,182.18-12,156.43-3.63,308.28,10.05,385.5,10.66,7.1.06,34.11.23,71.12,2.19,8.77.46,18,1.05,28.1,1.81,116.39,8.74,179.11,27.85,213.08,39.99,0,0,16.08,5.74,30.91,12,76.21,32.14,233.64,128.23,239.5,234.31Z"/></g><g id="tæppe2"><path class="cls-4" d="m1779.08,761.94c6.68,120.72-179.74,195.91-200.54,204.19-40.37,16.07-74.19,21.94-90.09,24.61-268.82,45.16-562.65,45.85-562.65,45.85s-294.41.69-528.4-40c-4.56-.79-43.45-7.73-91.52-24.61-88.83-31.2-119.33-64.87-128.7-76.18-7.26-8.76-15.06-18.34-19.99-32.69-12.32-35.87,4.74-68.25,14.27-85.68,92.37-168.88,271.69-229.7,271.69-229.7,50.99-17.29,142.19-24.81,324.6-39.85,76.9-6.34,115.36-9.51,160.15-10.55,137.52-3.19,271.01,8.84,338.9,9.38,6.24.05,29.99.21,62.52,1.93,7.71.41,15.82.92,24.7,1.59,102.32,7.69,157.46,24.49,187.32,35.16,0,0,14.13,5.05,27.17,10.55,67,28.25,205.39,112.73,210.55,205.99Z"/></g><g id="tæppe3"><path class="cls-23" d="m1681.82,749.22c5.72,103.5-154.09,167.96-171.92,175.05-34.61,13.78-63.6,18.81-77.23,21.1-230.46,38.72-482.36,39.31-482.36,39.31s-252.39.6-452.99-34.29c-3.91-.68-37.25-6.63-78.46-21.1-76.16-26.75-102.3-55.61-110.33-65.3-6.22-7.51-12.91-15.72-17.13-28.02-10.56-30.75,4.06-58.51,12.23-73.45,79.18-144.78,232.92-196.92,232.92-196.92,43.71-14.83,121.9-21.27,278.28-34.16,65.93-5.43,98.89-8.15,137.3-9.04,117.9-2.73,232.34,7.58,290.54,8.04,5.35.04,25.71.18,53.6,1.65,6.61.35,13.56.79,21.18,1.36,87.72,6.59,134.99,20.99,160.59,30.14,0,0,12.12,4.33,23.29,9.04,57.44,24.22,176.08,96.64,180.5,176.59Z"/></g><g id="tæppe4"><path class="cls-3" d="m1559.76,735.67c4.74,85.79-127.73,139.22-142.51,145.1-28.69,11.42-52.72,15.59-64.02,17.49-191.03,32.09-399.83,32.59-399.83,32.59s-209.22.49-375.5-28.42c-3.24-.56-30.88-5.49-65.03-17.49-63.13-22.17-84.8-46.1-91.45-54.13-5.16-6.22-10.7-13.03-14.2-23.23-8.76-25.49,3.37-48.5,10.14-60.88,65.64-120.01,193.07-163.23,193.07-163.23,36.24-12.29,101.05-17.63,230.67-28.32,54.65-4.5,81.98-6.76,113.81-7.5,97.73-2.27,192.59,6.28,240.83,6.66,4.43.04,21.31.15,44.43,1.37,5.48.29,11.24.66,17.55,1.13,72.71,5.46,111.9,17.4,133.12,24.98,0,0,10.04,3.59,19.31,7.5,47.61,20.08,145.96,80.11,149.62,146.38Z"/></g><g id="hoved"><path class="cls-26" d="m304.9,260.76c40.35,44.54,39.3,113.79,39.06,129.74-.42,27.96-6.1,61.54-50.22,145.08-52.79,99.96-102.19,190.9-207.86,263.66-43.94,30.25-65.9,45.38-86.49,40.46-102.79-24.58-189.45-427.25-8.37-569.17,87.98-68.95,247.57-82.95,313.88-9.77Z"/></g><g id="ansigt"><path class="cls-2" d="m128.43,483.27c-.24,10.14-.88,37.49,19.53,57.2,17.22,16.63,38.96,17.71,47.43,18.14,32.82,1.63,55.41-16.99,59.99-20.93,8.16-7.03,26.48-25.48,29.3-54.41.72-7.38,2.24-25.57-8.37-43.25-19.53-32.55-62.18-33.34-69.75-33.48-10.04-.19-31.24-.58-50.22,13.95-26.91,20.6-27.71,54.6-27.9,62.78Z"/><path class="cls-2" d="m53.28,348.25c-4.4-9.14-16.27-33.78-43.42-42.04-22.9-6.97-42.75,1.95-50.49,5.44-29.97,13.48-41.61,40.34-43.89,45.93-4.07,9.97-11.98,34.74-1.33,61.78,2.72,6.9,9.65,23.79,27.13,34.7,32.21,20.1,70.54,1.39,77.35-1.93,9.03-4.41,28.08-13.7,38.37-35.28,14.59-30.59-.17-61.23-3.72-68.6Z"/><circle class="cls-35" cx="207.25" cy="482.57" r="34.18"/><circle class="cls-35" cx="-8.29" cy="382.82" r="34.18"/><circle class="cls-9" cx="90.06" cy="587.2" r="13.95"/><circle class="cls-9" cx="17.52" cy="559.3" r="13.95"/><path class="cls-13" d="m170.98,682.06c-47.42,17.7-74.55,11.82-90.68,2.79-10.34-5.79-14.71-12.06-34.88-29.3-20.95-17.91-39.33-30.88-51.62-39.06"/><path class="cls-17" d="m90.52,644.54c-9.6,7.36-18.97,14.93-29.14,21.5,3.68,4.73,7.69,8.68,12.73,12.02,3.21,2.13,6.58,4.46,10.1,6.15,1.81-13.27,4.15-26.46,6.3-39.68Z"/><circle class="cls-24" cx="229.4" cy="482.19" r="6.19"/><circle class="cls-24" cx="13.42" cy="383.06" r="6.19"/></g><g id="horn"><path class="cls-9" d="m311.87,269.13c3.52-1.49,5.4-.36,16.74,0,27.44.88,46.89-4.77,57.2-6.98,31.45-6.73,194.78-27.85,206.46,4.19,6.4,17.54-38.04,48.44-126.95,110.21-103.28,71.74-120.38,69.17-129.74,65.57-52.57-20.26-53.62-160.29-23.72-172.98Z"/></g><g id="ben"><polygon class="cls-14" points="1846.89 1128.9 1550.63 593.4 1629.22 551.89 1894.92 1103.54 1846.89 1128.9"/><polygon class="cls-14" points="1974.75 1117.37 1822.41 864.52 1900.21 821.8 2022.29 1091.27 1974.75 1117.37"/><rect class="cls-33" x="1821.85" y="256.23" width="97.65" height="608.23"/><rect class="cls-21" x="1551.21" y="197.55" width="97.65" height="396.19"/></g><g id="benrevner"><polygon class="cls-10" points="1836.64 568.02 1831.89 864.46 1841.38 864.46 1836.64 568.02"/><polygon class="cls-10" points="1854.67 645.44 1849.81 863.83 1859.52 863.83 1854.67 645.44"/><polygon class="cls-33" points="1644.78 504.46 1643.35 594.12 1646.22 594.12 1644.78 504.46"/><polygon class="cls-33" points="1573.13 481.41 1569.93 593.74 1576.32 593.74 1573.13 481.41"/><polygon class="cls-33" points="1636.78 504.66 1635.35 594.32 1638.22 594.32 1636.78 504.66"/><polygon class="cls-10" points="1906.49 526.86 1901.85 864.46 1911.13 864.46 1906.49 526.86"/></g><g id="sokker"><path class="cls-14" d="m414.27,888.52c1.18-17.49,29.91-30.91,52.1-30.65,22.1.26,41.37,14.3,52.1,32.46,6.07,10.27,6.12,14.73,5.95,16.23-1.72,15.23-27.08,24.97-46.15,25.24-30.65.44-65.37-23.29-64.01-43.27Z"/><path class="cls-14" d="m250.84,756.82c-1.8-31.11,61.29-73.12,104.63-59.99,24.56,7.44,22.49,26.44,61.38,55.8,17.96,13.56,45.36,34.24,80.91,37.67,33.95,3.27,39.95-12.61,111.6-25.11,48.21-8.41,59.59-3.69,65.57,2.79,15.18,16.46,1.81,51.12,0,55.8-25.63,66.42-121.91,108.98-203.67,96.26-36.91-5.74-64.1-21.7-69.75-25.11-39.02-23.51-39.21-43.57-86.49-83.7-43-36.49-63.17-37.16-64.17-54.41Z"/><path class="cls-14" d="m1208.09,585.84c6.28,5.42,3.88,24.17-5.97,33.74-8.54,8.3-22.25,9.26-34.57,5.12-5.28-1.78-8.27-2.79-9.62-5.09-6.99-11.94,38.55-43.78,50.16-33.76Z"/><path class="cls-14" d="m1184.93,526.44c-14.35,1.37-12.17,26.43-34.88,37.67-16.64,8.24-25.13-1.6-58.59,1.4-11.37,1.02-49.29,4.41-53.01,19.53-3.05,12.38,17.59,29.56,34.88,37.67,15.96,7.49,19.39,2.7,93.47,1.4,10.39-.18,21.05-.28,32.09-6.98,1.67-1.01,18.17-11.37,22.32-30.69,6.28-29.22-19.42-61.6-36.27-59.99Z"/><path class="cls-15" d="m247.94,747.81c-1.8-31.11,61.29-73.12,104.63-59.99,24.56,7.44,22.49,26.44,61.38,55.8,17.96,13.56,45.36,34.24,80.91,37.67,33.95,3.27,39.95-12.61,111.6-25.11,48.21-8.41,59.59-3.69,65.57,2.79,15.18,16.46,1.81,51.12,0,55.8-25.63,66.42-121.91,108.98-203.67,96.26-36.91-5.74-64.1-21.7-69.75-25.11-39.02-23.51-39.21-43.57-86.49-83.7-43-36.49-63.17-37.16-64.17-54.41Z"/><path class="cls-28" d="m638.99,808.02c-9.71-5.49-23.06-14.1-28.73-27.34-1.12-2.61-4.94-12.67-2.2-17.12,2.19-3.55,4.51-7.83,10.68-10.19,1.11-.42,2.97-1.8,5.98-2.63,0,0,.49-.13,1.27-.28,0,0,1.47-.28,3.05-.36,2.23-.12,20.86-.4,33.21,3.29,0,0,5.93,1.77,9.77,5.58h0c16.27,16.78,3.09,47.33-.95,51.08-1.81,1.68-3.86,2.63-3.86,2.63-1.76.82-3.97,1.41-6.77,1.38-6.55-.05-11.73-.56-21.44-6.05Z"/><path class="cls-28" d="m408.37,877.51c1.18-17.49,29.91-30.91,52.1-30.65,22.1.26,41.37,14.3,52.1,32.46,6.07,10.27,6.12,14.73,5.95,16.23-1.72,15.23-27.08,24.97-46.15,25.24-30.65.44-65.37-23.29-64.01-43.27Z"/><path class="cls-6" d="m1185.4,523.21c-14.35,1.37-12.17,26.43-34.88,37.67-16.64,8.24-25.13-1.6-58.59,1.4-11.37,1.02-49.29,4.41-53.01,19.53-3.05,12.38,17.59,29.56,34.88,37.67,15.96,7.49,19.39,2.7,93.47,1.4,10.39-.18,21.05-.28,32.09-6.98,1.67-1.01,18.17-11.37,22.32-30.69,6.28-29.22-19.42-61.6-36.27-59.99Z"/><path class="cls-28" d="m1207.81,583.32c6.28,5.42,3.88,24.17-5.97,33.74-8.54,8.3-22.25,9.26-34.57,5.12-5.28-1.78-8.27-2.79-9.62-5.09-6.99-11.94,38.55-43.78,50.16-33.76Z"/><path class="cls-28" d="m1056.52,609.1c-5.99-3.17-14.12-8.28-16.81-17.35-.53-1.78-2.26-8.71-.09-12.12,1.73-2.73,3.61-5.99,7.88-8.18,1.08-.56,3.3-2.59,7.08-3.17,6.99-1.09,19.07-1.51,25.18,6.12,8.25,10.31,6.83,24.52-2.18,33.59-1.46,1.46-3.76,3.33-7.36,3.74-4.33.49-7.71.54-13.7-2.63Z"/></g><g id="bog"><path class="cls-14" d="m859.25,577.49c.31-7.77-6.97-14.01-41.85-34.88-40.23-24.06-79.02-37.26-78.78-37.85.03-.07.65.05.66.18.02.5-8.94,1.31-9.77,1.4-17.09,1.72-46.04,37.67-46.04,37.67-33.29,41.33-57.23,43.49-54.41,57.2,1.63,7.91,10.21,10.08,61.38,27.9,55.28,19.25,60.7,22.16,72.54,19.53,16.9-3.75,15.02-11.55,55.8-39.06,28.66-19.33,40.08-22.56,40.46-32.09Z"/><path class="cls-14" d="m863.22,592.2c23.91-5.17,34.45,7.92,89.86,31.07,51.61,21.55,81.87,26.56,81.07,35.95-.59,6.87-16.94,6.43-49.64,25.37-10.14,5.87-17.35,10.06-26.63,17.22-13.41,10.35-25.78,22.79-41.27,26.27-2.77.62-6.05,1.05-9.85.6-9.27-1.09-15.57-6.72-17.51-8.42-14.14-12.31-31.42-20.5-46.42-31.75-39.6-29.72-71.14-26.78-70.99-39.34.07-6.16,7.13-9.09,41.52-28.83,45.2-25.94,43.21-26.71,49.87-28.15Z"/><path class="cls-14" d="m860.64,581.68c23.41-7.08,34.98,5.12,92.07,23.72,53.18,17.32,83.74,19.86,83.7,29.3-.03,6.89-16.37,7.78-47.43,29.3-9.63,6.67-16.48,11.43-25.15,19.31-12.54,11.4-23.86,24.8-39.02,29.51-2.71.84-5.95,1.54-9.77,1.4-9.33-.34-16.06-5.44-18.14-6.98-15.08-11.13-32.97-17.9-48.83-27.9-41.87-26.43-73.07-20.95-73.94-33.48-.42-6.14,6.37-9.64,39.06-32.09,42.96-29.5,40.91-30.11,47.43-32.09Z"/><path class="cls-14" d="m853.42,572.21c-.25-7.77-7.96-13.47-44.25-31.77-41.86-21.1-81.49-31.48-81.3-32.08.02-.07.65,0,.67.13.06.5-8.83,1.95-9.64,2.09-16.92,2.94-43.21,40.88-43.21,40.88-30.23,43.62-53.95,47.5-50.15,60.96,2.19,7.77,10.9,9.32,63.23,23.41,56.52,15.22,62.14,17.73,73.76,14.26,16.59-4.96,14.15-12.6,52.84-42.98,27.19-21.35,38.35-25.39,38.04-34.91Z"/><path class="cls-27" d="m862.93,585.34c23.91-5.17,34.45,7.92,89.86,31.07,51.61,21.55,81.87,26.56,81.07,35.95-.59,6.87-16.94,6.43-49.64,25.37-10.14,5.87-17.35,10.06-26.63,17.22-13.41,10.35-25.78,22.79-41.27,26.27-2.77.62-6.05,1.05-9.85.6-9.27-1.09-15.57-6.72-17.51-8.42-14.14-12.31-31.42-20.5-46.42-31.75-39.6-29.72-71.14-26.78-70.99-39.34.07-6.16,7.13-9.09,41.52-28.83,45.2-25.94,43.21-26.71,49.87-28.15Z"/><path class="cls-29" d="m853.14,565.36c-.25-7.77-7.96-13.47-44.25-31.77-41.86-21.1-81.49-31.48-81.3-32.08.02-.07.65,0,.67.13.06.5-8.83,1.95-9.64,2.09-16.92,2.94-43.21,40.88-43.21,40.88-30.23,43.62-53.95,47.5-50.15,60.96,2.19,7.77,10.9,9.32,63.23,23.41,56.52,15.22,62.14,17.73,73.76,14.26,16.59-4.96,14.15-12.6,52.84-42.98,27.19-21.35,38.35-25.39,38.04-34.91Z"/><path class="cls-8" d="m860.36,574.83c23.41-7.08,34.98,5.12,92.07,23.72,53.18,17.32,83.74,19.86,83.7,29.3-.03,6.89-16.37,7.78-47.43,29.3-9.63,6.67-16.48,11.43-25.15,19.31-12.54,11.4-23.86,24.8-39.02,29.51-2.71.84-5.95,1.54-9.77,1.4-9.33-.34-16.06-5.44-18.14-6.98-15.08-11.13-32.97-17.9-48.83-27.9-41.87-26.43-73.07-20.95-73.94-33.48-.42-6.14,6.37-9.64,39.06-32.09,42.96-29.5,40.91-30.11,47.43-32.09Z"/><path class="cls-5" d="m858.96,570.64c.31-7.77-6.97-14.01-41.85-34.88-40.23-24.06-79.02-37.26-78.78-37.85.03-.07.65.05.66.18.02.5-8.94,1.31-9.77,1.4-17.09,1.72-46.04,37.67-46.04,37.67-33.29,41.33-57.23,43.49-54.41,57.2,1.63,7.91,10.21,10.08,61.38,27.9,55.28,19.25,60.7,22.16,72.54,19.53,16.9-3.75,15.02-11.55,55.8-39.06,28.66-19.33,40.08-22.56,40.46-32.09Z"/><polygon class="cls-16" points="882.67 597.19 896.18 611.79 909.33 596.86 908.55 616.74 928.41 615.48 913.8 628.99 928.73 642.14 908.85 641.37 910.11 661.22 896.6 646.62 883.45 661.54 884.23 641.67 864.37 642.92 878.97 629.42 864.05 616.27 883.93 617.04 882.67 597.19"/><path class="cls-1" d="m755.41,591.67c-.42-.16-.9-.38-1.42-.66-.95,2.28-2.15,4.58-3.55,6.9-3.15,5.21-7.71,8.46-12.81,9.86.11.17.2.34.29.49,1.9,3.41,6.98,9.44,3.12,13.2-3.85,3.76-10.78-3.02-12.77-6.18-.9-1.43-2.64-4.57-3.88-7.81-3.77-1.13-7.45-3.13-10.76-5.97-3.26-2.8-5.89-5.99-7.76-9.37-3.52-.55-7.1-1.68-8.72-2.29-3.5-1.33-11.51-6.76-8.6-11.29,2.92-4.53,9.84-.75,13.56.43.18.06.37.12.57.2.33-4.99,2.58-9.8,7.16-13.79,2.1-1.83,4.33-3.47,6.63-4.86-.62-.7-1.13-1.36-1.48-1.91-1.79-2.83-7.27-13.22-3.35-15.4,3.92-2.18,10.31,6.05,12.01,9.1.61,1.1,1.59,2.51,2.44,4.01,2.29-.61,4.58-.94,6.85-.96-.82-4.73.19-9.79,3.65-14.86.91-1.33,1.96-2.44,3.12-3.34-1.62-.89-2.45-2.52-3.13-4.72-1.19-3.84,1.66-7.21,5.29-7.93,3.62-.72,8.28,1.3,6.7,5.72-.52,1.44-.5,2.69-.42,3.75,7.15-.65,15.17,2.59,20.08,7.51,4.36,4.38,6.67,9.57,6.63,14.76,1.14-.14,2.55-.31,4.06-1.22,4.02-2.43,6.92,1.73,6.94,5.43.02,3.7-2.72,7.17-6.72,6.76-2.88-.29-4.92-.99-6.06-3.42-.83,1.73-1.97,3.42-3.42,5.01-3.71,4.1-8.48,6.16-13.37,6.33.33,1.83.42,3.68.3,5.56,1.22.44,2.37.91,3.29,1.21,3.33,1.06,12.67,5.69,11.31,9.96-1.36,4.27-12.63.97-15.76-.22Z"/><path class="cls-32" d="m741.65,592.76c-.82,1.01-1.92,1.67-3.13,1.97-.2.46-.47.9-.81,1.31-1.57,1.92-4.15,2.59-6.55,1.92-2.28,1.89-5.82,1.84-8.39-.26-.64-.53-1.17-1.14-1.58-1.8-1.37-.11-2.76-.64-3.95-1.61-1.85-1.51-2.76-3.73-2.6-5.82-2.08-2.41-2.31-5.87-.38-8.23.1-.13.21-.25.33-.36-.78-2.06-.53-4.38.88-6.11.94-1.15,2.23-1.84,3.63-2.08.21-.72.56-1.4,1.06-2.01,1.95-2.38,5.46-2.8,8.21-1.12,2.28-1.54,5.53-1.37,7.94.6,1.14.93,1.93,2.14,2.32,3.42,1.33.13,2.67.66,3.81,1.59,2.17,1.77,3.04,4.5,2.43,6.88,1.72,2.37,1.81,5.55,0,7.75-.58.71-1.29,1.24-2.08,1.6-.2.84-.58,1.65-1.16,2.35Z"/><path class="cls-35" d="m753.72,558.58c-2.09.38-3.06,1.24-3.55.5-.49-.74-.25-2.59-.14-4.03.11-1.44,1.64.47,2.35.9.71.43,3.43,2.25,1.34,2.63Z"/><path class="cls-11" d="m753.68,562.87c-.25-.03-1.67-.23-2.6-1.51-.68-.95-.7-1.95-.69-2.28"/><path class="cls-11" d="m745.9,556.75c.08.23.56,1.59,2,2.24,1.07.48,2.05.3,2.38.22"/><path class="cls-32" d="m739.22,528.73c-1.58,1.91-.89,4.59.81,5.76,1.69,1.17,5.94,1.04,5.12-1.54-.82-2.57,1.67-3.89.11-5.75s-4.45-.38-6.03,1.53Z"/><path class="cls-32" d="m782.02,563.72c-1.55,1.93-4.32,1.78-5.8.35-1.48-1.43-2.2-5.61.49-5.32,2.69.29,3.48-2.41,5.62-1.25,2.13,1.16,1.25,4.28-.3,6.21Z"/><path class="cls-35" d="m746.11,546.86c-.92,1.09-2.39.89-3.39.04-1-.85-1.48-2.12-.62-3.26.86-1.14,2.57-1.39,3.66-.46,1.09.94,1.26,2.58.34,3.67Z"/><path class="cls-35" d="m765.93,563.06c-.92,1.1-2.39.89-3.39.04-1-.85-1.48-2.12-.62-3.26s2.57-1.39,3.66-.46c1.09.94,1.26,2.58.35,3.67Z"/><circle class="cls-24" cx="743.96" cy="543.58" r=".44"/><circle class="cls-24" cx="763.9" cy="559.87" r=".44"/><path class="cls-24" d="m753.21,557.47c.19.24.02.45.22.59s.37.03.35-.17c-.01-.2-.14-.43-.34-.61-.2-.18-.43-.06-.24.18Z"/></g><g id="brikker"><path class="cls-14" d="m1272.71,877.23c-2.79-2.37-6.19.44-16.74,1.4-8.41.76-10.35-.65-12.56,1.4-1.33,1.23-2.03,3.38-1.4,16.74.53,11.24,2.56,16.3,0,18.14-3.03,2.18-7.8-3.53-12.56-1.4-4.71,2.12-7.33,10.83-4.19,15.35,3.17,4.55,11.76,4.22,12.56,4.19,2.88-.14,4.12-.9,5.58,0,3.07,1.89.29,6.91,2.79,9.77,4.19,4.77,19.17-1.04,29.3,1.4.93.22,1.94.55,2.79,1.4,2.66,2.65.07,6.75,1.4,11.16,1.42,4.73,7.18,9.29,12.56,8.37,4.26-.73,7.43-4.75,8.37-8.37,1.1-4.25-1.34-6.18,0-8.37,2.65-4.34,13.28,1.63,18.14-2.79,3.91-3.56-.48-9.74,0-26.51.24-8.41,1.38-8.35,1.4-16.74.02-11.18.03-19.94-5.58-23.72-4.76-3.21-12.79-2.3-15.35,1.4-2.16,3.12.93,6.31-1.4,12.56-.64,1.72-2.02,5.45-5.58,6.98-4.41,1.9-9.04-.93-9.77-1.4-4.11-2.61-5.63-7.14-6.98-11.16-2.11-6.31-.81-8.08-2.79-9.77Z"/><path class="cls-14" d="m1147.41,783.38c-15.33-.95-20.16-9.15-27.9-8.37-6.06.61-6.79,6.01-19.53,22.32-15.23,19.51-21.32,20.94-20.93,27.9.43,7.63,7.89,6.37,27.9,25.11,7.05,6.6,15.86,12.77,33.48,25.11.55.38,2.13,1.46,4.19,1.4,5.98-.18,12.94-9.86,11.16-16.74-1.73-6.68-10.81-7.27-11.16-13.95-.13-2.5.97-5.72,1.4-6.98.91-2.65,1.43-4.4,2.79-5.58,3.58-3.11,9.86-2.19,13.95,0,7.61,4.08,6.73,12.07,11.16,12.56,4.21.46,8.44-6.4,13.95-15.35,2.82-4.57,4.26-6.84,4.19-8.37-.54-10.77-28.54-15.03-27.9-22.32.23-2.59,3.77-2.22,8.37-8.37,1.63-2.18,6.57-8.73,4.19-13.95-1.03-2.26-2.96-3.44-4.19-4.19-.38-.24-6.12-3.64-11.16-1.4-5.63,2.5-8.37,11.16-8.37,11.16-1.22.08-3.18.15-5.58,0Z"/><path class="cls-19" d="m1145.64,776.41c-15.33-.95-20.16-9.15-27.9-8.37-6.06.61-6.79,6.01-19.53,22.32-15.23,19.51-21.32,20.94-20.93,27.9.43,7.63,7.89,6.37,27.9,25.11,7.05,6.6,15.86,12.77,33.48,25.11.55.38,2.13,1.46,4.19,1.4,5.98-.18,12.94-9.86,11.16-16.74-1.73-6.68-10.81-7.27-11.16-13.95-.13-2.5.97-5.72,1.4-6.98.91-2.65,1.43-4.4,2.79-5.58,3.58-3.11,9.86-2.19,13.95,0,7.61,4.08,6.73,12.07,11.16,12.56,4.21.46,8.44-6.4,13.95-15.35,2.82-4.57,4.26-6.84,4.19-8.37-.54-10.77-28.54-15.03-27.9-22.32.23-2.59,3.77-2.22,8.37-8.37,1.63-2.18,6.57-8.73,4.19-13.95-1.03-2.26-2.96-3.44-4.19-4.19-.38-.24-6.12-3.64-11.16-1.4-5.63,2.5-8.37,11.16-8.37,11.16-1.22.08-3.18.15-5.58,0Z"/><path class="cls-12" d="m1123.2,807.55c-4.46,1.1-10.05,3.29-12.39,8.16-1.77,3.68-.47,6.39-1.63,11.13-.86,3.54-3.12,8.33-9.47,13.3"/><path class="cls-9" d="m1121.01,809.17c-4.9,3.96-13.35-.46-13.96-4.15-.75-4.58,9.93-11.77,14.25-9.01,3.09,1.98,3.96,9.72-.29,13.16Z"/><path class="cls-9" d="m1119.24,796.21c-6-1.93-6.94-11.42-4.19-13.95,3.41-3.14,15.29,1.85,15.35,6.98.04,3.67-5.96,8.64-11.16,6.98Z"/><path class="cls-9" d="m1129.96,792.31c-1.4-6.15,6.29-11.79,9.88-10.7,4.44,1.34,6.19,14.1,1.81,16.76-3.14,1.91-10.47-.73-11.69-6.05Z"/><path class="cls-9" d="m1136.47,811.94c-5.7-2.7-5.37-12.23-2.31-14.38,3.8-2.66,14.91,3.85,14.29,8.94-.44,3.65-7.05,7.78-11.98,5.44Z"/><path class="cls-9" d="m1119.92,812c-1.4-6.15,6.29-11.79,9.88-10.7,4.44,1.34,6.19,14.1,1.81,16.76-3.14,1.91-10.47-.73-11.69-6.05Z"/><circle class="cls-26" cx="1128.2" cy="798.03" r="6.98"/><path class="cls-19" d="m1274.68,873.36c-2.79-2.37-6.19.44-16.74,1.4-8.41.76-10.35-.65-12.56,1.4-1.33,1.23-2.03,3.38-1.4,16.74.53,11.24,2.56,16.3,0,18.14-3.03,2.18-7.8-3.53-12.56-1.4-4.71,2.12-7.33,10.83-4.19,15.35,3.17,4.55,11.76,4.22,12.56,4.19,2.88-.14,4.12-.9,5.58,0,3.07,1.89.29,6.91,2.79,9.77,4.19,4.77,19.17-1.04,29.3,1.4.93.22,1.94.55,2.79,1.4,2.66,2.65.07,6.75,1.4,11.16,1.42,4.73,7.18,9.29,12.56,8.37,4.26-.73,7.43-4.75,8.37-8.37,1.1-4.25-1.34-6.18,0-8.37,2.65-4.34,13.28,1.63,18.14-2.79,3.91-3.56-.48-9.74,0-26.51.24-8.41,1.38-8.35,1.4-16.74.02-11.18.03-19.94-5.58-23.72-4.76-3.21-12.79-2.3-15.35,1.4-2.16,3.12.93,6.31-1.4,12.56-.64,1.72-2.02,5.45-5.58,6.98-4.41,1.9-9.04-.93-9.77-1.4-4.11-2.61-5.63-7.14-6.98-11.16-2.11-6.31-.81-8.08-2.79-9.77Z"/><path class="cls-12" d="m1279.5,917.36c1.8,4.23,4.87,9.38,10.04,10.91,3.92,1.16,6.38-.56,11.25-.19,3.63.28,14.34-5.9,19.92-5.9"/><path class="cls-9" d="m1281.46,919.27c4.7,4.2,1.7,13.25-1.85,14.45-4.39,1.48-13.22-7.9-11.18-12.61,1.45-3.37,8.96-5.47,13.03-1.84Z"/><path class="cls-9" d="m1268.96,923.09c-.93,6.23-10.15,8.69-13.09,6.38-3.65-2.86-.64-15.39,4.41-16.27,3.62-.63,9.49,4.49,8.68,9.89Z"/><path class="cls-9" d="m1263.38,913.15c-5.84,2.37-12.65-4.31-12.16-8.02.61-4.6,12.92-8.38,16.25-4.49,2.39,2.79.97,10.45-4.09,12.51Z"/><path class="cls-9" d="m1281.7,903.56c-1.75,6.06-11.21,7.28-13.82,4.6-3.24-3.32,1.39-15.34,6.52-15.54,3.67-.15,8.82,5.7,7.3,10.95Z"/><path class="cls-9" d="m1284.43,919.89c-5.84,2.37-12.65-4.31-12.16-8.02.61-4.6,12.92-8.38,16.25-4.49,2.39,2.79.97,10.45-4.09,12.51Z"/><circle class="cls-26" cx="1269.31" cy="913.96" r="6.98"/></g><g id="Layer_11"><ellipse class="cls-14" cx="1471.26" cy="632.41" rx="50.01" ry="11.59"/><path class="cls-34" d="m1376.71,538.92c-.52,32.39,19.43,61.48,43.56,76.95,7.68,4.93,26.27,15.2,50.55,14.55,41.18-1.1,96.11-33.56,96.99-88.44.8-49.69-41.34-90.65-94.11-91.5-52.77-.84-96.19,38.75-96.99,88.44Z"/><ellipse class="cls-22" cx="1472.93" cy="541.85" rx="87.89" ry="56.5" transform="translate(907.58 2005.92) rotate(-89.08)"/><ellipse class="cls-25" cx="1473.54" cy="460.24" rx="10.46" ry="29.3" transform="translate(989.78 1926.23) rotate(-89.08)"/></g><g id="lagn"><path class="cls-14" d="m1552.54,233.99c-11.51-7.1-28.95,5.02-52.1,3.47-33.18-2.23-43.98,13.15-78.17,17.96-45.59,6.42-53.95-17.06-103.62-16.28-30.48.48-30.09,9.36-91.9,27.09-48.69,13.97-123.9,35.55-144.9,7.62-7.34-9.76-1.05-16.24-7.68-24.26-18.92-22.87-85.96,10.69-191.18,40.41-125.33,35.4-151.62,22.08-160.58,9.81-8.71-11.92-.34-21.9-9.68-32.94-5.93-7.01-24.6-21.09-148.2,14.71-66.54,19.27-95.83,33.4-125.39,17.55-16.73-8.97-14.51-17.34-32.24-27.06-19.22-10.53-42.96-12.29-113.46,6.72-82.79,22.33-118.43,43.2-140.91,24.99-9.84-7.96-7.26-15.39-16.42-24.01-25.08-23.6-82.34-3.63-130.58,19.45C2.93,207.79.33,116.37-2.27,24.94L1545.59-19.1l6.95,253.09Z"/><path class="cls-14" d="m2507.55,318.23c-11-7.87-28.64-18.16-51.63-21.28-32.96-4.48-44.77,10.13-79.21,12.61-45.92,3.31-52.67-20.68-102.28-23.28-30.44-1.59-30.66,7.3-93.52,20.79-49.53,10.63-126.03,27.06-145.09-2.23-6.66-10.24.06-16.28-6.02-24.73-17.33-24.1-86.49,4.83-193.48,27.34-127.44,26.81-152.77,11.74-160.87-1.11-7.88-12.49,1.14-21.87-7.42-33.53-5.44-7.4-23.11-22.71-148.85,4.61-67.7,14.71-97.88,26.82-126.29,9-16.08-10.09-13.3-18.28-30.33-29.18-18.46-11.81-42.02-15.18-113.65-.99-84.11,16.66-121.09,35.06-142.28,15.37-9.27-8.61-6.19-15.85-14.75-25.07-23.43-25.25-81.9-9.21-131.6,10.54,3.61-91.39,7.22-182.79,10.83-274.18l1547.28,61.12-10.83,274.18Z"/><path class="cls-35" d="m1549.25,253c-11.31-7.43-29.08,4.2-52.18,1.98-33.11-3.17-44.34,11.89-78.65,15.73-45.76,5.12-53.44-18.59-103.12-19.22-30.48-.39-30.35,8.5-92.63,24.47-49.07,12.58-124.86,32.01-145.06,3.5-7.06-9.96-.59-16.27-6.99-24.47-18.27-23.4-86.23,8.24-192.25,34.95-126.29,31.82-152.18,17.76-160.79,5.24-8.37-12.17.28-21.9-8.74-33.21-5.73-7.18-23.99-21.78-148.56,10.49-67.06,17.37-96.74,30.67-125.84,13.98-16.47-9.44-14.01-17.74-31.46-27.96-18.91-11.08-42.59-13.51-113.6,3.5-83.39,19.97-119.61,39.81-141.57,20.97-9.6-8.24-6.81-15.59-15.73-24.47-24.4-24.3-82.2-5.97-131.08,15.73V-.19h1548.49l-.25,253.19Z"/><path class="cls-35" d="m2485.94,273.91c-11.31-7.43-29.33-17.01-52.43-19.22-33.11-3.17-44.34,11.89-78.65,15.73-45.76,5.12-53.44-18.59-103.12-19.22-30.48-.39-30.35,8.5-92.63,24.47-49.07,12.58-124.86,32.01-145.06,3.5-7.06-9.96-.59-16.27-6.99-24.47-18.27-23.4-86.23,8.24-192.25,34.95-126.29,31.82-152.18,17.76-160.79,5.24-8.37-12.17.28-21.9-8.74-33.21-5.73-7.18-23.99-21.78-148.56,10.49-67.06,17.37-96.74,30.67-125.84,13.98-16.47-9.44-14.01-17.74-31.46-27.96-18.91-11.08-42.59-13.51-113.6,3.5-83.39,19.97-119.61,39.81-141.57,20.97-9.6-8.24-6.81-15.59-15.73-24.47-24.4-24.3-82.2-5.97-131.08,15.73V-.48h1548.49v274.39Z"/></g><g id="stjerner"><polygon class="cls-20" points="782.18 13.57 812.83 38.08 851.36 26.76 836.4 63.44 858.47 95.65 818.58 93.81 793.69 125.03 784 87.22 746.54 74.31 780.44 52.77 782.18 13.57"/><polygon class="cls-20" points="190.49 39.78 187.85 84.89 224.31 113.87 179.67 123.87 164.02 165.94 139.07 127.01 92.93 124.03 122.16 89.97 109.29 46.06 152.31 63.94 190.49 39.78"/><polygon class="cls-20" points="1340.85 126.44 1320.69 166.87 1342.82 207.86 1297.83 199.5 1266.91 232.02 1259.27 186.42 1218.02 165.54 1258.29 145.71 1263.72 100.29 1296.24 133.63 1340.85 126.44"/><path class="cls-20" d="m602.25,263.12c-13.68,2.36-28.42,5.48-43.99,9.61-17.23,4.57-32.98,9.71-47.15,14.99-4.24-19.25-8.49-38.48-12.73-57.72l64.76,27.37c12.74-7.43,25.47-14.85,38.21-22.28.31,9.35.6,18.68.9,28.03Z"/><polygon class="cls-20" points="1934.8 109.06 1891.57 122.19 1876.99 166.43 1852.16 128 1807.28 127.87 1835.17 90.99 1822 46.67 1864.07 62.31 1900.82 35.05 1898.93 81.59 1934.8 109.06"/></g><g id="skygger_seng"><path class="cls-18" d="m720.36,300.01c-1.41.18-2.77-2.86-4.01-5.58-2.29-5.02-2.98-10.32-2.82-10.39.06-.02.18.63.27.62,1.33-.14,3.74-159.96,3.28-192.51-.05-3.63.55-9.62,1.64-9.77,1.21-.16,2.77,6.95,3.83,12.56.36,65.1.73,130.2,1.09,195.3-.48,5.52-1.72,9.57-3.28,9.77Z"/><path class="cls-18" d="m1077.71,280.47c-.5.19-.92.04-1.02,0-.32-.13-.86-.47-2.37-5.21-.46-1.45-.85-2.78-.94-4.58-.01-.25-.02-.44-.02-.56-1.09-47.14,4.01-94.27,3.33-141.42-.04-2.54.65-7.14,1.53-7.23.86-.09,1.81,4.18,2.55,8.33-.34,48.36-.68,96.72-1.02,145.08,0,2.89-.83,5.11-2.04,5.58Z"/><path class="cls-18" d="m423.33,277.68c-.79.43-2.57-1.34-3.36-2.31-.93-1.14-1.35-2.22-1.69-3.12-.92-2.44-.95-4.59-.96-5.14-1.09-47.14,4.01-94.27,3.33-141.42-.04-2.84.74-7.18,1.53-7.23.91-.05,1.84,5.75,2.55,11.34-.69,78.42-1.12,133.47-1.02,142.29,0,.04,0,.07,0,.13.04,3.47.05,5.22-.38,5.45Z"/><path class="cls-18" d="m1371.87,287.31c-.89.71-2.9-.32-3.81-.97-.35-.25-.92-.66-1.4-1.4-.84-1.29-.61-2.36-.79-7.64-.01-.4-.02-.4-.02-.57-1.09-47.14,4.01-94.27,3.33-141.42-.04-2.84.74-7.18,1.53-7.23.91-.05,1.84,5.75,2.55,11.34-.69,78.42-1.12,133.47-1.02,142.29,0,.04,0,.07,0,.13.04,3.4.05,5.11-.38,5.45Z"/><path class="cls-18" d="m144.38,278.93c-.68.39-2.22-1.22-2.91-2.1-.8-1.04-1.17-2.02-1.46-2.84-.79-2.22-.82-4.18-.83-4.68-.95-42.91,3.47-85.81,2.88-128.73-.04-2.58.64-6.54,1.32-6.58.79-.05,1.59,5.23,2.2,10.32-.6,71.38-.97,121.5-.88,129.53,0,.03,0,.06,0,.12.03,3.16.04,4.75-.33,4.96Z"/><path class="cls-18" d="m1656.44,297.8c-1.41.18-2.77-2.86-4.01-5.58-2.29-5.02-2.98-10.32-2.82-10.39.06-.02.18.63.27.62,1.33-.14,3.74-159.96,3.28-192.51-.05-3.63.55-9.62,1.64-9.77,1.21-.16,2.77,6.95,3.83,12.56.36,65.1.73,130.2,1.09,195.3-.48,5.52-1.72,9.57-3.28,9.77Z"/></g></svg>